<svg id="Capa_1" enable-background="new 0 0 512 512" height="512" viewBox="0 0 512 512" width="512" xmlns="http://www.w3.org/2000/svg"><g><path d="m445.497 297.384-57.914-6.604c-7.371-.841-12.958-6.83-13.285-14.242l-6.029-136.536-15.323-1.328c-41.77-3.62-74.043-36.615-76.739-78.455l-.363-5.643-3.999-3.999c-29.242-29.242-76.824-29.242-106.066 0l-106.067 106.066c-14.166 14.166-21.967 33-21.967 53.033s7.801 38.867 21.967 53.033l207.465 207.464c8.499 8.5 19.799 13.18 31.819 13.18h213.004v-111.452c0-38.158-28.59-70.194-66.503-74.517zm-258.507-225.593c8.773-8.773 20.297-13.159 31.82-13.159 9.932 0 19.864 3.259 28.034 9.775 2.989 24.907 14.125 48.229 31.743 66.242 16.507 16.876 37.801 28.165 60.847 32.433l.719 16.273h-68.153v30h69.478l1.325 30h-70.803v30h72.128l.199 4.507c.981 22.235 17.744 40.203 39.857 42.725l57.914 6.604c22.747 2.594 39.901 21.815 39.901 44.71v21.453h-164.363l-143.565-143.564c7.155-12.208 12.029-25.519 14.534-39.724 3.948-22.394 1.496-45.306-7.091-66.259-6.152-15.01-15.246-28.549-26.671-39.869zm112.006 381.563c-4.007 0-7.773-1.56-10.606-4.394l-207.465-207.463c-8.499-8.5-13.18-19.8-13.18-31.82s4.681-23.32 13.18-31.82l52.726-52.727c20.987 20.624 30.628 50.131 25.409 79.726-4.869 27.626-19.68 41.44-24.003 48.346l170.153 170.152h176.79v30z"/><path d="m0 333.354h62v30h-62z"/><path d="m0 393.354h122v30h-122z"/><path d="m0 453.354h182v30h-182z"/></g></svg>