<svg width="512" height="455" viewBox="0 0 512 455" fill="none" xmlns="http://www.w3.org/2000/svg">
<path d="M445.497 268.738L387.583 262.134C380.212 261.293 374.625 255.305 374.298 247.893L368.269 111.356L352.946 110.028C311.176 106.408 278.903 73.4135 276.207 31.5735L275.844 25.9305L271.845 21.9315C242.603 -7.3105 195.021 -7.3105 165.779 21.9315L59.712 127.998C45.546 142.164 37.745 160.998 37.745 181.031C37.745 201.064 45.546 219.898 59.712 234.064L267.177 441.527C275.676 450.027 286.976 454.707 298.996 454.707H512V343.255C512 305.097 483.41 273.061 445.497 268.738ZM186.99 43.1455C195.763 34.3725 207.287 29.9865 218.81 29.9865C228.742 29.9865 238.674 33.2455 246.844 39.7615C249.833 64.6685 260.969 87.9905 278.587 106.004C295.094 122.88 316.388 134.169 339.434 138.437L340.153 154.71H272V184.71H341.478L342.803 214.71H272V244.71H344.128L344.327 249.217C345.308 271.452 362.071 289.419 384.184 291.941L442.098 298.546C464.845 301.14 481.999 320.36 481.999 343.255V364.708H317.636L174.071 221.145C181.226 208.937 186.1 195.626 188.605 181.421C192.553 159.027 190.101 136.115 181.514 115.162C175.362 100.152 166.268 86.6125 154.843 75.2925L186.99 43.1455ZM298.996 424.708C294.989 424.708 291.223 423.148 288.39 420.314L80.925 212.852C72.426 204.352 67.745 193.052 67.745 181.032C67.745 169.012 72.426 157.712 80.925 149.212L133.651 96.4845C154.638 117.108 164.279 146.616 159.06 176.211C154.191 203.837 139.38 217.651 135.057 224.557L305.21 394.708H482V424.708H298.996Z" fill="white"/>
<path d="M0 304.708H62V334.708H0V304.708Z" fill="white"/>
<path d="M0 364.708H122V394.708H0V364.708Z" fill="white"/>
<path d="M0 424.708H182V454.708H0V424.708Z" fill="white"/>
</svg>
